<?xml version="1.0" encoding="utf-8" standalone="no"?>
<!DOCTYPE svg PUBLIC "-//W3C//DTD SVG 1.1//EN"
  "http://www.w3.org/Graphics/SVG/1.1/DTD/svg11.dtd">
<svg xmlns:xlink="http://www.w3.org/1999/xlink" width="712.202312pt" height="568.378906pt" viewBox="0 0 712.202312 568.378906" xmlns="http://www.w3.org/2000/svg" version="1.1">
 <metadata>
  <rdf:RDF xmlns:dc="http://purl.org/dc/elements/1.1/" xmlns:cc="http://creativecommons.org/ns#" xmlns:rdf="http://www.w3.org/1999/02/22-rdf-syntax-ns#">
   <cc:Work>
    <dc:type rdf:resource="http://purl.org/dc/dcmitype/StillImage"/>
    <dc:date>2026-01-07T00:39:25.098716</dc:date>
    <dc:format>image/svg+xml</dc:format>
    <dc:creator>
     <cc:Agent>
      <dc:title>Matplotlib v3.10.1, https://matplotlib.org/</dc:title>
     </cc:Agent>
    </dc:creator>
   </cc:Work>
  </rdf:RDF>
 </metadata>
 <defs>
  <style type="text/css">*{stroke-linejoin: round; stroke-linecap: butt}</style>
 </defs>
 <g id="figure_1">
  <g id="patch_1">
   <path d="M 0 568.378906 
L 712.202312 568.378906 
L 712.202312 0 
L 0 0 
z
" style="fill: #ffffff"/>
  </g>
  <g id="axes_1">
   <g id="patch_2">
    <path d="M 86.405313 500.22 
L 705.002313 500.22 
L 705.002313 7.2 
L 86.405313 7.2 
z
" style="fill: #ffffff"/>
   </g>
   <g id="line2d_1">
    <path d="M 86.405313 315.657227 
L 705.002313 315.657227 
" clip-path="url(#p8b5fc83de8)" style="fill: none; stroke-dasharray: 5.55,2.4; stroke-dashoffset: 0; stroke: #808080; stroke-opacity: 0.6; stroke-width: 1.5"/>
   </g>
   <g id="matplotlib.axis_1">
    <g id="xtick_1">
     <g id="line2d_2">
      <defs>
       <path id="m89732031a5" d="M 0 0 
L 0 6 
" style="stroke: #000000; stroke-width: 1.5"/>
      </defs>
      <g>
       <use xlink:href="#m89732031a5" x="129.400631" y="500.22" style="stroke: #000000; stroke-width: 1.5"/>
      </g>
     </g>
     <g id="text_1">
      <!-- 150 -->
      <g transform="translate(114.130631 521.8775) scale(0.16 -0.16)">
       <defs>
        <path id="DejaVuSans-31" d="M 794 531 
L 1825 531 
L 1825 4091 
L 703 3866 
L 703 4441 
L 1819 4666 
L 2450 4666 
L 2450 531 
L 3481 531 
L 3481 0 
L 794 0 
L 794 531 
z
" transform="scale(0.015625)"/>
        <path id="DejaVuSans-35" d="M 691 4666 
L 3169 4666 
L 3169 4134 
L 1269 4134 
L 1269 2991 
Q 1406 3038 1543 3061 
Q 1681 3084 1819 3084 
Q 2600 3084 3056 2656 
Q 3513 2228 3513 1497 
Q 3513 744 3044 326 
Q 2575 -91 1722 -91 
Q 1428 -91 1123 -41 
Q 819 9 494 109 
L 494 744 
Q 775 591 1075 516 
Q 1375 441 1709 441 
Q 2250 441 2565 725 
Q 2881 1009 2881 1497 
Q 2881 1984 2565 2268 
Q 2250 2553 1709 2553 
Q 1456 2553 1204 2497 
Q 953 2441 691 2322 
L 691 4666 
z
" transform="scale(0.015625)"/>
        <path id="DejaVuSans-30" d="M 2034 4250 
Q 1547 4250 1301 3770 
Q 1056 3291 1056 2328 
Q 1056 1369 1301 889 
Q 1547 409 2034 409 
Q 2525 409 2770 889 
Q 3016 1369 3016 2328 
Q 3016 3291 2770 3770 
Q 2525 4250 2034 4250 
z
M 2034 4750 
Q 2819 4750 3233 4129 
Q 3647 3509 3647 2328 
Q 3647 1150 3233 529 
Q 2819 -91 2034 -91 
Q 1250 -91 836 529 
Q 422 1150 422 2328 
Q 422 3509 836 4129 
Q 1250 4750 2034 4750 
z
" transform="scale(0.015625)"/>
       </defs>
       <use xlink:href="#DejaVuSans-31"/>
       <use xlink:href="#DejaVuSans-35" transform="translate(63.623047 0)"/>
       <use xlink:href="#DejaVuSans-30" transform="translate(127.246094 0)"/>
      </g>
     </g>
    </g>
    <g id="xtick_2">
     <g id="line2d_3">
      <g>
       <use xlink:href="#m89732031a5" x="203.786994" y="500.22" style="stroke: #000000; stroke-width: 1.5"/>
      </g>
     </g>
     <g id="text_2">
      <!-- 200 -->
      <g transform="translate(188.516994 521.8775) scale(0.16 -0.16)">
       <defs>
        <path id="DejaVuSans-32" d="M 1228 531 
L 3431 531 
L 3431 0 
L 469 0 
L 469 531 
Q 828 903 1448 1529 
Q 2069 2156 2228 2338 
Q 2531 2678 2651 2914 
Q 2772 3150 2772 3378 
Q 2772 3750 2511 3984 
Q 2250 4219 1831 4219 
Q 1534 4219 1204 4116 
Q 875 4013 500 3803 
L 500 4441 
Q 881 4594 1212 4672 
Q 1544 4750 1819 4750 
Q 2544 4750 2975 4387 
Q 3406 4025 3406 3419 
Q 3406 3131 3298 2873 
Q 3191 2616 2906 2266 
Q 2828 2175 2409 1742 
Q 1991 1309 1228 531 
z
" transform="scale(0.015625)"/>
       </defs>
       <use xlink:href="#DejaVuSans-32"/>
       <use xlink:href="#DejaVuSans-30" transform="translate(63.623047 0)"/>
       <use xlink:href="#DejaVuSans-30" transform="translate(127.246094 0)"/>
      </g>
     </g>
    </g>
    <g id="xtick_3">
     <g id="line2d_4">
      <g>
       <use xlink:href="#m89732031a5" x="278.173358" y="500.22" style="stroke: #000000; stroke-width: 1.5"/>
      </g>
     </g>
     <g id="text_3">
      <!-- 250 -->
      <g transform="translate(262.903358 521.8775) scale(0.16 -0.16)">
       <use xlink:href="#DejaVuSans-32"/>
       <use xlink:href="#DejaVuSans-35" transform="translate(63.623047 0)"/>
       <use xlink:href="#DejaVuSans-30" transform="translate(127.246094 0)"/>
      </g>
     </g>
    </g>
    <g id="xtick_4">
     <g id="line2d_5">
      <g>
       <use xlink:href="#m89732031a5" x="352.559722" y="500.22" style="stroke: #000000; stroke-width: 1.5"/>
      </g>
     </g>
     <g id="text_4">
      <!-- 300 -->
      <g transform="translate(337.289722 521.8775) scale(0.16 -0.16)">
       <defs>
        <path id="DejaVuSans-33" d="M 2597 2516 
Q 3050 2419 3304 2112 
Q 3559 1806 3559 1356 
Q 3559 666 3084 287 
Q 2609 -91 1734 -91 
Q 1441 -91 1130 -33 
Q 819 25 488 141 
L 488 750 
Q 750 597 1062 519 
Q 1375 441 1716 441 
Q 2309 441 2620 675 
Q 2931 909 2931 1356 
Q 2931 1769 2642 2001 
Q 2353 2234 1838 2234 
L 1294 2234 
L 1294 2753 
L 1863 2753 
Q 2328 2753 2575 2939 
Q 2822 3125 2822 3475 
Q 2822 3834 2567 4026 
Q 2313 4219 1838 4219 
Q 1578 4219 1281 4162 
Q 984 4106 628 3988 
L 628 4550 
Q 988 4650 1302 4700 
Q 1616 4750 1894 4750 
Q 2613 4750 3031 4423 
Q 3450 4097 3450 3541 
Q 3450 3153 3228 2886 
Q 3006 2619 2597 2516 
z
" transform="scale(0.015625)"/>
       </defs>
       <use xlink:href="#DejaVuSans-33"/>
       <use xlink:href="#DejaVuSans-30" transform="translate(63.623047 0)"/>
       <use xlink:href="#DejaVuSans-30" transform="translate(127.246094 0)"/>
      </g>
     </g>
    </g>
    <g id="xtick_5">
     <g id="line2d_6">
      <g>
       <use xlink:href="#m89732031a5" x="426.946085" y="500.22" style="stroke: #000000; stroke-width: 1.5"/>
      </g>
     </g>
     <g id="text_5">
      <!-- 350 -->
      <g transform="translate(411.676085 521.8775) scale(0.16 -0.16)">
       <use xlink:href="#DejaVuSans-33"/>
       <use xlink:href="#DejaVuSans-35" transform="translate(63.623047 0)"/>
       <use xlink:href="#DejaVuSans-30" transform="translate(127.246094 0)"/>
      </g>
     </g>
    </g>
    <g id="xtick_6">
     <g id="line2d_7">
      <g>
       <use xlink:href="#m89732031a5" x="501.332449" y="500.22" style="stroke: #000000; stroke-width: 1.5"/>
      </g>
     </g>
     <g id="text_6">
      <!-- 400 -->
      <g transform="translate(486.062449 521.8775) scale(0.16 -0.16)">
       <defs>
        <path id="DejaVuSans-34" d="M 2419 4116 
L 825 1625 
L 2419 1625 
L 2419 4116 
z
M 2253 4666 
L 3047 4666 
L 3047 1625 
L 3713 1625 
L 3713 1100 
L 3047 1100 
L 3047 0 
L 2419 0 
L 2419 1100 
L 313 1100 
L 313 1709 
L 2253 4666 
z
" transform="scale(0.015625)"/>
       </defs>
       <use xlink:href="#DejaVuSans-34"/>
       <use xlink:href="#DejaVuSans-30" transform="translate(63.623047 0)"/>
       <use xlink:href="#DejaVuSans-30" transform="translate(127.246094 0)"/>
      </g>
     </g>
    </g>
    <g id="xtick_7">
     <g id="line2d_8">
      <g>
       <use xlink:href="#m89732031a5" x="575.718813" y="500.22" style="stroke: #000000; stroke-width: 1.5"/>
      </g>
     </g>
     <g id="text_7">
      <!-- 450 -->
      <g transform="translate(560.448813 521.8775) scale(0.16 -0.16)">
       <use xlink:href="#DejaVuSans-34"/>
       <use xlink:href="#DejaVuSans-35" transform="translate(63.623047 0)"/>
       <use xlink:href="#DejaVuSans-30" transform="translate(127.246094 0)"/>
      </g>
     </g>
    </g>
    <g id="xtick_8">
     <g id="line2d_9">
      <g>
       <use xlink:href="#m89732031a5" x="650.105176" y="500.22" style="stroke: #000000; stroke-width: 1.5"/>
      </g>
     </g>
     <g id="text_8">
      <!-- 500 -->
      <g transform="translate(634.835176 521.8775) scale(0.16 -0.16)">
       <use xlink:href="#DejaVuSans-35"/>
       <use xlink:href="#DejaVuSans-30" transform="translate(63.623047 0)"/>
       <use xlink:href="#DejaVuSans-30" transform="translate(127.246094 0)"/>
      </g>
     </g>
    </g>
    <g id="text_9">
     <!-- Depth (μm) -->
     <g transform="translate(289.211781 554.279844) scale(0.33 -0.33)">
      <defs>
       <path id="DejaVuSans-Bold-44" d="M 1791 3756 
L 1791 909 
L 2222 909 
Q 2959 909 3348 1275 
Q 3738 1641 3738 2338 
Q 3738 3031 3350 3393 
Q 2963 3756 2222 3756 
L 1791 3756 
z
M 588 4666 
L 1856 4666 
Q 2919 4666 3439 4514 
Q 3959 4363 4331 4000 
Q 4659 3684 4818 3271 
Q 4978 2859 4978 2338 
Q 4978 1809 4818 1395 
Q 4659 981 4331 666 
Q 3956 303 3431 151 
Q 2906 0 1856 0 
L 588 0 
L 588 4666 
z
" transform="scale(0.015625)"/>
       <path id="DejaVuSans-Bold-65" d="M 4031 1759 
L 4031 1441 
L 1416 1441 
Q 1456 1047 1700 850 
Q 1944 653 2381 653 
Q 2734 653 3104 758 
Q 3475 863 3866 1075 
L 3866 213 
Q 3469 63 3072 -14 
Q 2675 -91 2278 -91 
Q 1328 -91 801 392 
Q 275 875 275 1747 
Q 275 2603 792 3093 
Q 1309 3584 2216 3584 
Q 3041 3584 3536 3087 
Q 4031 2591 4031 1759 
z
M 2881 2131 
Q 2881 2450 2695 2645 
Q 2509 2841 2209 2841 
Q 1884 2841 1681 2658 
Q 1478 2475 1428 2131 
L 2881 2131 
z
" transform="scale(0.015625)"/>
       <path id="DejaVuSans-Bold-70" d="M 1656 506 
L 1656 -1331 
L 538 -1331 
L 538 3500 
L 1656 3500 
L 1656 2988 
Q 1888 3294 2169 3439 
Q 2450 3584 2816 3584 
Q 3463 3584 3878 3070 
Q 4294 2556 4294 1747 
Q 4294 938 3878 423 
Q 3463 -91 2816 -91 
Q 2450 -91 2169 54 
Q 1888 200 1656 506 
z
M 2400 2772 
Q 2041 2772 1848 2508 
Q 1656 2244 1656 1747 
Q 1656 1250 1848 986 
Q 2041 722 2400 722 
Q 2759 722 2948 984 
Q 3138 1247 3138 1747 
Q 3138 2247 2948 2509 
Q 2759 2772 2400 2772 
z
" transform="scale(0.015625)"/>
       <path id="DejaVuSans-Bold-74" d="M 1759 4494 
L 1759 3500 
L 2913 3500 
L 2913 2700 
L 1759 2700 
L 1759 1216 
Q 1759 972 1856 886 
Q 1953 800 2241 800 
L 2816 800 
L 2816 0 
L 1856 0 
Q 1194 0 917 276 
Q 641 553 641 1216 
L 641 2700 
L 84 2700 
L 84 3500 
L 641 3500 
L 641 4494 
L 1759 4494 
z
" transform="scale(0.015625)"/>
       <path id="DejaVuSans-Bold-68" d="M 4056 2131 
L 4056 0 
L 2931 0 
L 2931 347 
L 2931 1625 
Q 2931 2084 2911 2256 
Q 2891 2428 2841 2509 
Q 2775 2619 2662 2680 
Q 2550 2741 2406 2741 
Q 2056 2741 1856 2470 
Q 1656 2200 1656 1722 
L 1656 0 
L 538 0 
L 538 4863 
L 1656 4863 
L 1656 2988 
Q 1909 3294 2193 3439 
Q 2478 3584 2822 3584 
Q 3428 3584 3742 3212 
Q 4056 2841 4056 2131 
z
" transform="scale(0.015625)"/>
       <path id="DejaVuSans-Bold-20" transform="scale(0.015625)"/>
       <path id="DejaVuSans-Bold-28" d="M 2413 -844 
L 1484 -844 
Q 1006 -72 778 623 
Q 550 1319 550 2003 
Q 550 2688 779 3389 
Q 1009 4091 1484 4856 
L 2413 4856 
Q 2013 4116 1813 3408 
Q 1613 2700 1613 2009 
Q 1613 1319 1811 609 
Q 2009 -100 2413 -844 
z
" transform="scale(0.015625)"/>
       <path id="DejaVuSans-Bold-3bc" d="M 544 -1338 
L 544 3500 
L 1672 3500 
L 1672 1466 
Q 1672 1103 1828 926 
Q 1984 750 2303 750 
Q 2625 750 2781 926 
Q 2938 1103 2938 1466 
L 2938 3500 
L 4063 3500 
L 4063 1159 
Q 4063 938 4114 850 
Q 4166 763 4288 763 
Q 4344 763 4395 778 
Q 4447 794 4506 831 
L 4506 50 
Q 4341 -22 4195 -56 
Q 4050 -91 3909 -91 
Q 3631 -91 3454 26 
Q 3278 144 3169 403 
Q 3022 156 2811 32 
Q 2600 -91 2322 -91 
Q 2091 -91 1928 -17 
Q 1766 56 1672 206 
L 1672 -1338 
L 544 -1338 
z
" transform="scale(0.015625)"/>
       <path id="DejaVuSans-Bold-6d" d="M 3781 2919 
Q 3994 3244 4286 3414 
Q 4578 3584 4928 3584 
Q 5531 3584 5847 3212 
Q 6163 2841 6163 2131 
L 6163 0 
L 5038 0 
L 5038 1825 
Q 5041 1866 5042 1909 
Q 5044 1953 5044 2034 
Q 5044 2406 4934 2573 
Q 4825 2741 4581 2741 
Q 4263 2741 4089 2478 
Q 3916 2216 3909 1719 
L 3909 0 
L 2784 0 
L 2784 1825 
Q 2784 2406 2684 2573 
Q 2584 2741 2328 2741 
Q 2006 2741 1831 2477 
Q 1656 2213 1656 1722 
L 1656 0 
L 531 0 
L 531 3500 
L 1656 3500 
L 1656 2988 
Q 1863 3284 2130 3434 
Q 2397 3584 2719 3584 
Q 3081 3584 3359 3409 
Q 3638 3234 3781 2919 
z
" transform="scale(0.015625)"/>
       <path id="DejaVuSans-Bold-29" d="M 513 -844 
Q 913 -100 1113 609 
Q 1313 1319 1313 2009 
Q 1313 2700 1113 3408 
Q 913 4116 513 4856 
L 1441 4856 
Q 1916 4091 2145 3389 
Q 2375 2688 2375 2003 
Q 2375 1319 2147 623 
Q 1919 -72 1441 -844 
L 513 -844 
z
" transform="scale(0.015625)"/>
      </defs>
      <use xlink:href="#DejaVuSans-Bold-44"/>
      <use xlink:href="#DejaVuSans-Bold-65" transform="translate(83.007812 0)"/>
      <use xlink:href="#DejaVuSans-Bold-70" transform="translate(150.830078 0)"/>
      <use xlink:href="#DejaVuSans-Bold-74" transform="translate(222.412109 0)"/>
      <use xlink:href="#DejaVuSans-Bold-68" transform="translate(270.214844 0)"/>
      <use xlink:href="#DejaVuSans-Bold-20" transform="translate(341.40625 0)"/>
      <use xlink:href="#DejaVuSans-Bold-28" transform="translate(376.220703 0)"/>
      <use xlink:href="#DejaVuSans-Bold-3bc" transform="translate(421.923828 0)"/>
      <use xlink:href="#DejaVuSans-Bold-6d" transform="translate(495.507812 0)"/>
      <use xlink:href="#DejaVuSans-Bold-29" transform="translate(599.707031 0)"/>
     </g>
    </g>
   </g>
   <g id="matplotlib.axis_2">
    <g id="ytick_1">
     <g id="line2d_10">
      <defs>
       <path id="m301f2f9c5f" d="M 0 0 
L -6 0 
" style="stroke: #000000; stroke-width: 1.5"/>
      </defs>
      <g>
       <use xlink:href="#m301f2f9c5f" x="86.405313" y="452.958717" style="stroke: #000000; stroke-width: 1.5"/>
      </g>
     </g>
     <g id="text_10">
      <!-- −20 -->
      <g transform="translate(43.137813 459.037467) scale(0.16 -0.16)">
       <defs>
        <path id="DejaVuSans-2212" d="M 678 2272 
L 4684 2272 
L 4684 1741 
L 678 1741 
L 678 2272 
z
" transform="scale(0.015625)"/>
       </defs>
       <use xlink:href="#DejaVuSans-2212"/>
       <use xlink:href="#DejaVuSans-32" transform="translate(83.789062 0)"/>
       <use xlink:href="#DejaVuSans-30" transform="translate(147.412109 0)"/>
      </g>
     </g>
    </g>
    <g id="ytick_2">
     <g id="line2d_11">
      <g>
       <use xlink:href="#m301f2f9c5f" x="86.405313" y="384.307972" style="stroke: #000000; stroke-width: 1.5"/>
      </g>
     </g>
     <g id="text_11">
      <!-- −10 -->
      <g transform="translate(43.137813 390.386722) scale(0.16 -0.16)">
       <use xlink:href="#DejaVuSans-2212"/>
       <use xlink:href="#DejaVuSans-31" transform="translate(83.789062 0)"/>
       <use xlink:href="#DejaVuSans-30" transform="translate(147.412109 0)"/>
      </g>
     </g>
    </g>
    <g id="ytick_3">
     <g id="line2d_12">
      <g>
       <use xlink:href="#m301f2f9c5f" x="86.405313" y="315.657227" style="stroke: #000000; stroke-width: 1.5"/>
      </g>
     </g>
     <g id="text_12">
      <!-- 0 -->
      <g transform="translate(66.725313 321.735977) scale(0.16 -0.16)">
       <use xlink:href="#DejaVuSans-30"/>
      </g>
     </g>
    </g>
    <g id="ytick_4">
     <g id="line2d_13">
      <g>
       <use xlink:href="#m301f2f9c5f" x="86.405313" y="247.006482" style="stroke: #000000; stroke-width: 1.5"/>
      </g>
     </g>
     <g id="text_13">
      <!-- 10 -->
      <g transform="translate(56.545313 253.085232) scale(0.16 -0.16)">
       <use xlink:href="#DejaVuSans-31"/>
       <use xlink:href="#DejaVuSans-30" transform="translate(63.623047 0)"/>
      </g>
     </g>
    </g>
    <g id="ytick_5">
     <g id="line2d_14">
      <g>
       <use xlink:href="#m301f2f9c5f" x="86.405313" y="178.355737" style="stroke: #000000; stroke-width: 1.5"/>
      </g>
     </g>
     <g id="text_14">
      <!-- 20 -->
      <g transform="translate(56.545313 184.434487) scale(0.16 -0.16)">
       <use xlink:href="#DejaVuSans-32"/>
       <use xlink:href="#DejaVuSans-30" transform="translate(63.623047 0)"/>
      </g>
     </g>
    </g>
    <g id="ytick_6">
     <g id="line2d_15">
      <g>
       <use xlink:href="#m301f2f9c5f" x="86.405313" y="109.704991" style="stroke: #000000; stroke-width: 1.5"/>
      </g>
     </g>
     <g id="text_15">
      <!-- 30 -->
      <g transform="translate(56.545313 115.783741) scale(0.16 -0.16)">
       <use xlink:href="#DejaVuSans-33"/>
       <use xlink:href="#DejaVuSans-30" transform="translate(63.623047 0)"/>
      </g>
     </g>
    </g>
    <g id="ytick_7">
     <g id="line2d_16">
      <g>
       <use xlink:href="#m301f2f9c5f" x="86.405313" y="41.054246" style="stroke: #000000; stroke-width: 1.5"/>
      </g>
     </g>
     <g id="text_16">
      <!-- 40 -->
      <g transform="translate(56.545313 47.132996) scale(0.16 -0.16)">
       <use xlink:href="#DejaVuSans-34"/>
       <use xlink:href="#DejaVuSans-30" transform="translate(63.623047 0)"/>
      </g>
     </g>
    </g>
    <g id="text_17">
     <!-- Metric $\mathregular{S_{\Delta}}$ (a.u.) -->
     <g transform="translate(32.274844 396.27) rotate(-90) scale(0.33 -0.33)">
      <defs>
       <path id="DejaVuSans-Bold-4d" d="M 588 4666 
L 2119 4666 
L 3181 2169 
L 4250 4666 
L 5778 4666 
L 5778 0 
L 4641 0 
L 4641 3413 
L 3566 897 
L 2803 897 
L 1728 3413 
L 1728 0 
L 588 0 
L 588 4666 
z
" transform="scale(0.015625)"/>
       <path id="DejaVuSans-Bold-72" d="M 3138 2547 
Q 2991 2616 2845 2648 
Q 2700 2681 2553 2681 
Q 2122 2681 1889 2404 
Q 1656 2128 1656 1613 
L 1656 0 
L 538 0 
L 538 3500 
L 1656 3500 
L 1656 2925 
Q 1872 3269 2151 3426 
Q 2431 3584 2822 3584 
Q 2878 3584 2943 3579 
Q 3009 3575 3134 3559 
L 3138 2547 
z
" transform="scale(0.015625)"/>
       <path id="DejaVuSans-Bold-69" d="M 538 3500 
L 1656 3500 
L 1656 0 
L 538 0 
L 538 3500 
z
M 538 4863 
L 1656 4863 
L 1656 3950 
L 538 3950 
L 538 4863 
z
" transform="scale(0.015625)"/>
       <path id="DejaVuSans-Bold-63" d="M 3366 3391 
L 3366 2478 
Q 3138 2634 2908 2709 
Q 2678 2784 2431 2784 
Q 1963 2784 1702 2511 
Q 1441 2238 1441 1747 
Q 1441 1256 1702 982 
Q 1963 709 2431 709 
Q 2694 709 2930 787 
Q 3166 866 3366 1019 
L 3366 103 
Q 3103 6 2833 -42 
Q 2563 -91 2291 -91 
Q 1344 -91 809 395 
Q 275 881 275 1747 
Q 275 2613 809 3098 
Q 1344 3584 2291 3584 
Q 2566 3584 2833 3536 
Q 3100 3488 3366 3391 
z
" transform="scale(0.015625)"/>
       <path id="DejaVuSans-Bold-53" d="M 3834 4519 
L 3834 3531 
Q 3450 3703 3084 3790 
Q 2719 3878 2394 3878 
Q 1963 3878 1756 3759 
Q 1550 3641 1550 3391 
Q 1550 3203 1689 3098 
Q 1828 2994 2194 2919 
L 2706 2816 
Q 3484 2659 3812 2340 
Q 4141 2022 4141 1434 
Q 4141 663 3683 286 
Q 3225 -91 2284 -91 
Q 1841 -91 1394 -6 
Q 947 78 500 244 
L 500 1259 
Q 947 1022 1364 901 
Q 1781 781 2169 781 
Q 2563 781 2772 912 
Q 2981 1044 2981 1288 
Q 2981 1506 2839 1625 
Q 2697 1744 2272 1838 
L 1806 1941 
Q 1106 2091 782 2419 
Q 459 2747 459 3303 
Q 459 4000 909 4375 
Q 1359 4750 2203 4750 
Q 2588 4750 2994 4692 
Q 3400 4634 3834 4519 
z
" transform="scale(0.015625)"/>
       <path id="DejaVuSans-Bold-394" d="M 4922 0 
L 31 0 
L 1759 4666 
L 3194 4666 
L 4922 0 
z
M 1559 909 
L 3384 909 
L 2478 3572 
L 1559 909 
z
" transform="scale(0.015625)"/>
       <path id="DejaVuSans-Bold-61" d="M 2106 1575 
Q 1756 1575 1579 1456 
Q 1403 1338 1403 1106 
Q 1403 894 1545 773 
Q 1688 653 1941 653 
Q 2256 653 2472 879 
Q 2688 1106 2688 1447 
L 2688 1575 
L 2106 1575 
z
M 3816 1997 
L 3816 0 
L 2688 0 
L 2688 519 
Q 2463 200 2181 54 
Q 1900 -91 1497 -91 
Q 953 -91 614 226 
Q 275 544 275 1050 
Q 275 1666 698 1953 
Q 1122 2241 2028 2241 
L 2688 2241 
L 2688 2328 
Q 2688 2594 2478 2717 
Q 2269 2841 1825 2841 
Q 1466 2841 1156 2769 
Q 847 2697 581 2553 
L 581 3406 
Q 941 3494 1303 3539 
Q 1666 3584 2028 3584 
Q 2975 3584 3395 3211 
Q 3816 2838 3816 1997 
z
" transform="scale(0.015625)"/>
       <path id="DejaVuSans-Bold-2e" d="M 653 1209 
L 1778 1209 
L 1778 0 
L 653 0 
L 653 1209 
z
" transform="scale(0.015625)"/>
       <path id="DejaVuSans-Bold-75" d="M 500 1363 
L 500 3500 
L 1625 3500 
L 1625 3150 
Q 1625 2866 1622 2436 
Q 1619 2006 1619 1863 
Q 1619 1441 1641 1255 
Q 1663 1069 1716 984 
Q 1784 875 1895 815 
Q 2006 756 2150 756 
Q 2500 756 2700 1025 
Q 2900 1294 2900 1772 
L 2900 3500 
L 4019 3500 
L 4019 0 
L 2900 0 
L 2900 506 
Q 2647 200 2364 54 
Q 2081 -91 1741 -91 
Q 1134 -91 817 281 
Q 500 653 500 1363 
z
" transform="scale(0.015625)"/>
      </defs>
      <use xlink:href="#DejaVuSans-Bold-4d" transform="translate(0 0.015625)"/>
      <use xlink:href="#DejaVuSans-Bold-65" transform="translate(99.511719 0.015625)"/>
      <use xlink:href="#DejaVuSans-Bold-74" transform="translate(167.333984 0.015625)"/>
      <use xlink:href="#DejaVuSans-Bold-72" transform="translate(215.136719 0.015625)"/>
      <use xlink:href="#DejaVuSans-Bold-69" transform="translate(264.453125 0.015625)"/>
      <use xlink:href="#DejaVuSans-Bold-63" transform="translate(298.730469 0.015625)"/>
      <use xlink:href="#DejaVuSans-Bold-20" transform="translate(358.007812 0.015625)"/>
      <use xlink:href="#DejaVuSans-Bold-53" transform="translate(392.822266 0.015625)"/>
      <use xlink:href="#DejaVuSans-Bold-394" transform="translate(465.800781 -16.390625) scale(0.7)"/>
      <use xlink:href="#DejaVuSans-Bold-20" transform="translate(522.709961 0.015625)"/>
      <use xlink:href="#DejaVuSans-Bold-28" transform="translate(557.524414 0.015625)"/>
      <use xlink:href="#DejaVuSans-Bold-61" transform="translate(603.227539 0.015625)"/>
      <use xlink:href="#DejaVuSans-Bold-2e" transform="translate(670.708008 0.015625)"/>
      <use xlink:href="#DejaVuSans-Bold-75" transform="translate(708.696289 0.015625)"/>
      <use xlink:href="#DejaVuSans-Bold-2e" transform="translate(779.887695 0.015625)"/>
      <use xlink:href="#DejaVuSans-Bold-29" transform="translate(817.875977 0.015625)"/>
     </g>
    </g>
   </g>
   <g id="line2d_17">
    <path d="M 114.523358 206.44538 
L 120.203771 208.248947 
L 125.884184 210.052515 
L 131.564598 211.856083 
L 137.245011 213.65965 
L 142.925424 215.463218 
L 148.605837 217.266786 
L 154.286251 219.070354 
L 159.966664 220.873921 
L 165.647077 222.677489 
L 171.32749 224.481057 
L 177.007903 226.284624 
L 182.688317 228.088192 
L 188.36873 229.89176 
L 194.049143 231.695327 
L 199.729556 233.498895 
L 205.40997 235.302463 
L 211.090383 237.10603 
L 216.770796 238.909598 
L 222.451209 240.713166 
L 228.131622 242.516734 
L 233.812036 244.320301 
L 239.492449 246.123869 
L 245.172862 247.927437 
L 250.853275 249.731004 
L 256.533689 251.534572 
L 262.214102 253.33814 
L 267.894515 255.141707 
L 273.574928 256.945275 
L 279.255341 258.748843 
L 284.935755 260.552411 
L 290.616168 262.355978 
L 296.296581 264.159546 
L 301.976994 265.963114 
L 307.657408 267.766681 
L 313.337821 269.570249 
L 319.018234 271.373817 
L 324.698647 273.177384 
L 330.37906 274.980952 
L 336.059474 276.78452 
L 341.739887 278.588087 
L 347.4203 280.391655 
L 353.100713 282.195223 
L 358.781127 283.998791 
L 364.46154 285.802358 
L 370.141953 287.605926 
L 375.822366 289.409494 
L 381.502779 291.213061 
L 387.183193 293.016629 
L 392.863606 294.820197 
L 398.544019 296.623764 
L 404.224432 298.427332 
L 409.904846 300.2309 
L 415.585259 302.034468 
L 421.265672 303.838035 
L 426.946085 305.641603 
L 432.626498 307.445171 
L 438.306912 309.248738 
L 443.987325 311.052306 
L 449.667738 312.855874 
L 455.348151 314.659441 
L 461.028565 316.463009 
L 466.708978 318.266577 
L 472.389391 320.070144 
L 478.069804 321.873712 
L 483.750217 323.67728 
L 489.430631 325.480848 
L 495.111044 327.284415 
L 500.791457 329.087983 
L 506.47187 330.891551 
L 512.152284 332.695118 
L 517.832697 334.498686 
L 523.51311 336.302254 
L 529.193523 338.105821 
L 534.873936 339.909389 
L 540.55435 341.712957 
L 546.234763 343.516524 
L 551.915176 345.320092 
L 557.595589 347.12366 
L 563.276003 348.927228 
L 568.956416 350.730795 
L 574.636829 352.534363 
L 580.317242 354.337931 
L 585.997655 356.141498 
L 591.678069 357.945066 
L 597.358482 359.748634 
L 603.038895 361.552201 
L 608.719308 363.355769 
L 614.399722 365.159337 
L 620.080135 366.962905 
L 625.760548 368.766472 
L 631.440961 370.57004 
L 637.121374 372.373608 
L 642.801788 374.177175 
L 648.482201 375.980743 
L 654.162614 377.784311 
L 659.843027 379.587878 
L 665.523441 381.391446 
L 671.203854 383.195014 
L 676.884267 384.998581 
" clip-path="url(#p8b5fc83de8)" style="fill: none; stroke-dasharray: 9.25,4; stroke-dashoffset: 0; stroke: #000000; stroke-opacity: 0.4; stroke-width: 2.5"/>
   </g>
   <g id="patch_3">
    <path d="M 86.405313 500.22 
L 86.405313 7.2 
" style="fill: none; stroke: #000000; stroke-width: 1.5; stroke-linejoin: miter; stroke-linecap: square"/>
   </g>
   <g id="patch_4">
    <path d="M 705.002313 500.22 
L 705.002313 7.2 
" style="fill: none; stroke: #000000; stroke-width: 1.5; stroke-linejoin: miter; stroke-linecap: square"/>
   </g>
   <g id="patch_5">
    <path d="M 86.405313 500.22 
L 705.002313 500.22 
" style="fill: none; stroke: #000000; stroke-width: 1.5; stroke-linejoin: miter; stroke-linecap: square"/>
   </g>
   <g id="patch_6">
    <path d="M 86.405313 7.2 
L 705.002313 7.2 
" style="fill: none; stroke: #000000; stroke-width: 1.5; stroke-linejoin: miter; stroke-linecap: square"/>
   </g>
   <g id="PathCollection_1">
    <defs>
     <path id="m29f123ae6a" d="M 0 5 
C 1.326016 5 2.597899 4.473168 3.535534 3.535534 
C 4.473168 2.597899 5 1.326016 5 0 
C 5 -1.326016 4.473168 -2.597899 3.535534 -3.535534 
C 2.597899 -4.473168 1.326016 -5 0 -5 
C -1.326016 -5 -2.597899 -4.473168 -3.535534 -3.535534 
C -4.473168 -2.597899 -5 -1.326016 -5 0 
C -5 1.326016 -4.473168 2.597899 -3.535534 3.535534 
C -2.597899 4.473168 -1.326016 5 0 5 
z
" style="stroke: #000000; stroke-width: 1.5"/>
    </defs>
    <g clip-path="url(#p8b5fc83de8)">
     <use xlink:href="#m29f123ae6a" x="114.523358" y="322.761252" style="fill: #ff8c00; stroke: #000000; stroke-width: 1.5"/>
     <use xlink:href="#m29f123ae6a" x="129.400631" y="204.118888" style="fill: #ff8c00; stroke: #000000; stroke-width: 1.5"/>
     <use xlink:href="#m29f123ae6a" x="153.204267" y="264.557827" style="fill: #ff8c00; stroke: #000000; stroke-width: 1.5"/>
     <use xlink:href="#m29f123ae6a" x="162.130631" y="241.745315" style="fill: #ff8c00; stroke: #000000; stroke-width: 1.5"/>
     <use xlink:href="#m29f123ae6a" x="182.958813" y="234.426895" style="fill: #ff8c00; stroke: #000000; stroke-width: 1.5"/>
     <use xlink:href="#m29f123ae6a" x="206.762449" y="242.027073" style="fill: #ff8c00; stroke: #000000; stroke-width: 1.5"/>
     <use xlink:href="#m29f123ae6a" x="221.639722" y="217.701346" style="fill: #ff8c00; stroke: #000000; stroke-width: 1.5"/>
     <use xlink:href="#m29f123ae6a" x="245.443358" y="64.086923" style="fill: #ff8c00; stroke: #000000; stroke-width: 1.5"/>
     <use xlink:href="#m29f123ae6a" x="266.27154" y="271.34451" style="fill: #ff8c00; stroke: #000000; stroke-width: 1.5"/>
     <use xlink:href="#m29f123ae6a" x="296.026085" y="249.373243" style="fill: #ff8c00; stroke: #000000; stroke-width: 1.5"/>
     <use xlink:href="#m29f123ae6a" x="319.829722" y="168.953348" style="fill: #ff8c00; stroke: #000000; stroke-width: 1.5"/>
     <use xlink:href="#m29f123ae6a" x="343.633358" y="306.769763" style="fill: #ff8c00; stroke: #000000; stroke-width: 1.5"/>
     <use xlink:href="#m29f123ae6a" x="358.510631" y="251.964844" style="fill: #ff8c00; stroke: #000000; stroke-width: 1.5"/>
     <use xlink:href="#m29f123ae6a" x="379.338813" y="309.227059" style="fill: #ff8c00; stroke: #000000; stroke-width: 1.5"/>
     <use xlink:href="#m29f123ae6a" x="403.142449" y="280.810722" style="fill: #ff8c00; stroke: #000000; stroke-width: 1.5"/>
     <use xlink:href="#m29f123ae6a" x="423.970631" y="327.495456" style="fill: #ff8c00; stroke: #000000; stroke-width: 1.5"/>
     <use xlink:href="#m29f123ae6a" x="453.725176" y="409.377284" style="fill: #ff8c00; stroke: #000000; stroke-width: 1.5"/>
     <use xlink:href="#m29f123ae6a" x="486.455176" y="309.014283" style="fill: #ff8c00; stroke: #000000; stroke-width: 1.5"/>
     <use xlink:href="#m29f123ae6a" x="501.332449" y="274.574119" style="fill: #ff8c00; stroke: #000000; stroke-width: 1.5"/>
     <use xlink:href="#m29f123ae6a" x="525.136085" y="366.458655" style="fill: #ff8c00; stroke: #000000; stroke-width: 1.5"/>
     <use xlink:href="#m29f123ae6a" x="540.013358" y="312.579445" style="fill: #ff8c00; stroke: #000000; stroke-width: 1.5"/>
     <use xlink:href="#m29f123ae6a" x="575.718813" y="365.496036" style="fill: #ff8c00; stroke: #000000; stroke-width: 1.5"/>
     <use xlink:href="#m29f123ae6a" x="593.57154" y="382.529654" style="fill: #ff8c00; stroke: #000000; stroke-width: 1.5"/>
     <use xlink:href="#m29f123ae6a" x="599.522449" y="443.333077" style="fill: #ff8c00; stroke: #000000; stroke-width: 1.5"/>
     <use xlink:href="#m29f123ae6a" x="614.399722" y="396.043564" style="fill: #ff8c00; stroke: #000000; stroke-width: 1.5"/>
     <use xlink:href="#m29f123ae6a" x="623.326085" y="328.120978" style="fill: #ff8c00; stroke: #000000; stroke-width: 1.5"/>
     <use xlink:href="#m29f123ae6a" x="656.056085" y="319.976967" style="fill: #ff8c00; stroke: #000000; stroke-width: 1.5"/>
     <use xlink:href="#m29f123ae6a" x="676.884267" y="406.844398" style="fill: #ff8c00; stroke: #000000; stroke-width: 1.5"/>
    </g>
   </g>
   <g id="text_18">
    <g id="patch_7">
     <path d="M 117.335163 480.369 
L 380.652663 480.369 
Q 385.452663 480.369 385.452663 475.569 
L 385.452663 442.1675 
Q 385.452663 437.3675 380.652663 437.3675 
L 117.335163 437.3675 
Q 112.535163 437.3675 112.535163 442.1675 
L 112.535163 475.569 
Q 112.535163 480.369 117.335163 480.369 
z
" style="fill: #ffffff; opacity: 0.9; stroke: #000000; stroke-width: 1.5; stroke-linejoin: miter"/>
    </g>
    <!-- y = -0.0688x + 25.54 -->
    <g transform="translate(117.335163 454.325) scale(0.16 -0.16)">
     <defs>
      <path id="DejaVuSans-79" d="M 2059 -325 
Q 1816 -950 1584 -1140 
Q 1353 -1331 966 -1331 
L 506 -1331 
L 506 -850 
L 844 -850 
Q 1081 -850 1212 -737 
Q 1344 -625 1503 -206 
L 1606 56 
L 191 3500 
L 800 3500 
L 1894 763 
L 2988 3500 
L 3597 3500 
L 2059 -325 
z
" transform="scale(0.015625)"/>
      <path id="DejaVuSans-20" transform="scale(0.015625)"/>
      <path id="DejaVuSans-3d" d="M 678 2906 
L 4684 2906 
L 4684 2381 
L 678 2381 
L 678 2906 
z
M 678 1631 
L 4684 1631 
L 4684 1100 
L 678 1100 
L 678 1631 
z
" transform="scale(0.015625)"/>
      <path id="DejaVuSans-2d" d="M 313 2009 
L 1997 2009 
L 1997 1497 
L 313 1497 
L 313 2009 
z
" transform="scale(0.015625)"/>
      <path id="DejaVuSans-2e" d="M 684 794 
L 1344 794 
L 1344 0 
L 684 0 
L 684 794 
z
" transform="scale(0.015625)"/>
      <path id="DejaVuSans-36" d="M 2113 2584 
Q 1688 2584 1439 2293 
Q 1191 2003 1191 1497 
Q 1191 994 1439 701 
Q 1688 409 2113 409 
Q 2538 409 2786 701 
Q 3034 994 3034 1497 
Q 3034 2003 2786 2293 
Q 2538 2584 2113 2584 
z
M 3366 4563 
L 3366 3988 
Q 3128 4100 2886 4159 
Q 2644 4219 2406 4219 
Q 1781 4219 1451 3797 
Q 1122 3375 1075 2522 
Q 1259 2794 1537 2939 
Q 1816 3084 2150 3084 
Q 2853 3084 3261 2657 
Q 3669 2231 3669 1497 
Q 3669 778 3244 343 
Q 2819 -91 2113 -91 
Q 1303 -91 875 529 
Q 447 1150 447 2328 
Q 447 3434 972 4092 
Q 1497 4750 2381 4750 
Q 2619 4750 2861 4703 
Q 3103 4656 3366 4563 
z
" transform="scale(0.015625)"/>
      <path id="DejaVuSans-38" d="M 2034 2216 
Q 1584 2216 1326 1975 
Q 1069 1734 1069 1313 
Q 1069 891 1326 650 
Q 1584 409 2034 409 
Q 2484 409 2743 651 
Q 3003 894 3003 1313 
Q 3003 1734 2745 1975 
Q 2488 2216 2034 2216 
z
M 1403 2484 
Q 997 2584 770 2862 
Q 544 3141 544 3541 
Q 544 4100 942 4425 
Q 1341 4750 2034 4750 
Q 2731 4750 3128 4425 
Q 3525 4100 3525 3541 
Q 3525 3141 3298 2862 
Q 3072 2584 2669 2484 
Q 3125 2378 3379 2068 
Q 3634 1759 3634 1313 
Q 3634 634 3220 271 
Q 2806 -91 2034 -91 
Q 1263 -91 848 271 
Q 434 634 434 1313 
Q 434 1759 690 2068 
Q 947 2378 1403 2484 
z
M 1172 3481 
Q 1172 3119 1398 2916 
Q 1625 2713 2034 2713 
Q 2441 2713 2670 2916 
Q 2900 3119 2900 3481 
Q 2900 3844 2670 4047 
Q 2441 4250 2034 4250 
Q 1625 4250 1398 4047 
Q 1172 3844 1172 3481 
z
" transform="scale(0.015625)"/>
      <path id="DejaVuSans-78" d="M 3513 3500 
L 2247 1797 
L 3578 0 
L 2900 0 
L 1881 1375 
L 863 0 
L 184 0 
L 1544 1831 
L 300 3500 
L 978 3500 
L 1906 2253 
L 2834 3500 
L 3513 3500 
z
" transform="scale(0.015625)"/>
      <path id="DejaVuSans-2b" d="M 2944 4013 
L 2944 2272 
L 4684 2272 
L 4684 1741 
L 2944 1741 
L 2944 0 
L 2419 0 
L 2419 1741 
L 678 1741 
L 678 2272 
L 2419 2272 
L 2419 4013 
L 2944 4013 
z
" transform="scale(0.015625)"/>
     </defs>
     <use xlink:href="#DejaVuSans-79"/>
     <use xlink:href="#DejaVuSans-20" transform="translate(59.179688 0)"/>
     <use xlink:href="#DejaVuSans-3d" transform="translate(90.966797 0)"/>
     <use xlink:href="#DejaVuSans-20" transform="translate(174.755859 0)"/>
     <use xlink:href="#DejaVuSans-2d" transform="translate(206.542969 0)"/>
     <use xlink:href="#DejaVuSans-30" transform="translate(242.626953 0)"/>
     <use xlink:href="#DejaVuSans-2e" transform="translate(306.25 0)"/>
     <use xlink:href="#DejaVuSans-30" transform="translate(338.037109 0)"/>
     <use xlink:href="#DejaVuSans-36" transform="translate(401.660156 0)"/>
     <use xlink:href="#DejaVuSans-38" transform="translate(465.283203 0)"/>
     <use xlink:href="#DejaVuSans-38" transform="translate(528.90625 0)"/>
     <use xlink:href="#DejaVuSans-78" transform="translate(592.529297 0)"/>
     <use xlink:href="#DejaVuSans-20" transform="translate(651.708984 0)"/>
     <use xlink:href="#DejaVuSans-2b" transform="translate(683.496094 0)"/>
     <use xlink:href="#DejaVuSans-20" transform="translate(767.285156 0)"/>
     <use xlink:href="#DejaVuSans-32" transform="translate(799.072266 0)"/>
     <use xlink:href="#DejaVuSans-35" transform="translate(862.695312 0)"/>
     <use xlink:href="#DejaVuSans-2e" transform="translate(926.318359 0)"/>
     <use xlink:href="#DejaVuSans-35" transform="translate(958.105469 0)"/>
     <use xlink:href="#DejaVuSans-34" transform="translate(1021.728516 0)"/>
    </g>
    <!-- r = -0.694, p = 4.15e-05, N = 28 -->
    <g transform="translate(117.335163 472.2415) scale(0.16 -0.16)">
     <defs>
      <path id="DejaVuSans-72" d="M 2631 2963 
Q 2534 3019 2420 3045 
Q 2306 3072 2169 3072 
Q 1681 3072 1420 2755 
Q 1159 2438 1159 1844 
L 1159 0 
L 581 0 
L 581 3500 
L 1159 3500 
L 1159 2956 
Q 1341 3275 1631 3429 
Q 1922 3584 2338 3584 
Q 2397 3584 2469 3576 
Q 2541 3569 2628 3553 
L 2631 2963 
z
" transform="scale(0.015625)"/>
      <path id="DejaVuSans-39" d="M 703 97 
L 703 672 
Q 941 559 1184 500 
Q 1428 441 1663 441 
Q 2288 441 2617 861 
Q 2947 1281 2994 2138 
Q 2813 1869 2534 1725 
Q 2256 1581 1919 1581 
Q 1219 1581 811 2004 
Q 403 2428 403 3163 
Q 403 3881 828 4315 
Q 1253 4750 1959 4750 
Q 2769 4750 3195 4129 
Q 3622 3509 3622 2328 
Q 3622 1225 3098 567 
Q 2575 -91 1691 -91 
Q 1453 -91 1209 -44 
Q 966 3 703 97 
z
M 1959 2075 
Q 2384 2075 2632 2365 
Q 2881 2656 2881 3163 
Q 2881 3666 2632 3958 
Q 2384 4250 1959 4250 
Q 1534 4250 1286 3958 
Q 1038 3666 1038 3163 
Q 1038 2656 1286 2365 
Q 1534 2075 1959 2075 
z
" transform="scale(0.015625)"/>
      <path id="DejaVuSans-2c" d="M 750 794 
L 1409 794 
L 1409 256 
L 897 -744 
L 494 -744 
L 750 256 
L 750 794 
z
" transform="scale(0.015625)"/>
      <path id="DejaVuSans-70" d="M 1159 525 
L 1159 -1331 
L 581 -1331 
L 581 3500 
L 1159 3500 
L 1159 2969 
Q 1341 3281 1617 3432 
Q 1894 3584 2278 3584 
Q 2916 3584 3314 3078 
Q 3713 2572 3713 1747 
Q 3713 922 3314 415 
Q 2916 -91 2278 -91 
Q 1894 -91 1617 61 
Q 1341 213 1159 525 
z
M 3116 1747 
Q 3116 2381 2855 2742 
Q 2594 3103 2138 3103 
Q 1681 3103 1420 2742 
Q 1159 2381 1159 1747 
Q 1159 1113 1420 752 
Q 1681 391 2138 391 
Q 2594 391 2855 752 
Q 3116 1113 3116 1747 
z
" transform="scale(0.015625)"/>
      <path id="DejaVuSans-65" d="M 3597 1894 
L 3597 1613 
L 953 1613 
Q 991 1019 1311 708 
Q 1631 397 2203 397 
Q 2534 397 2845 478 
Q 3156 559 3463 722 
L 3463 178 
Q 3153 47 2828 -22 
Q 2503 -91 2169 -91 
Q 1331 -91 842 396 
Q 353 884 353 1716 
Q 353 2575 817 3079 
Q 1281 3584 2069 3584 
Q 2775 3584 3186 3129 
Q 3597 2675 3597 1894 
z
M 3022 2063 
Q 3016 2534 2758 2815 
Q 2500 3097 2075 3097 
Q 1594 3097 1305 2825 
Q 1016 2553 972 2059 
L 3022 2063 
z
" transform="scale(0.015625)"/>
      <path id="DejaVuSans-4e" d="M 628 4666 
L 1478 4666 
L 3547 763 
L 3547 4666 
L 4159 4666 
L 4159 0 
L 3309 0 
L 1241 3903 
L 1241 0 
L 628 0 
L 628 4666 
z
" transform="scale(0.015625)"/>
     </defs>
     <use xlink:href="#DejaVuSans-72"/>
     <use xlink:href="#DejaVuSans-20" transform="translate(41.113281 0)"/>
     <use xlink:href="#DejaVuSans-3d" transform="translate(72.900391 0)"/>
     <use xlink:href="#DejaVuSans-20" transform="translate(156.689453 0)"/>
     <use xlink:href="#DejaVuSans-2d" transform="translate(188.476562 0)"/>
     <use xlink:href="#DejaVuSans-30" transform="translate(224.560547 0)"/>
     <use xlink:href="#DejaVuSans-2e" transform="translate(288.183594 0)"/>
     <use xlink:href="#DejaVuSans-36" transform="translate(319.970703 0)"/>
     <use xlink:href="#DejaVuSans-39" transform="translate(383.59375 0)"/>
     <use xlink:href="#DejaVuSans-34" transform="translate(447.216797 0)"/>
     <use xlink:href="#DejaVuSans-2c" transform="translate(510.839844 0)"/>
     <use xlink:href="#DejaVuSans-20" transform="translate(542.626953 0)"/>
     <use xlink:href="#DejaVuSans-70" transform="translate(574.414062 0)"/>
     <use xlink:href="#DejaVuSans-20" transform="translate(637.890625 0)"/>
     <use xlink:href="#DejaVuSans-3d" transform="translate(669.677734 0)"/>
     <use xlink:href="#DejaVuSans-20" transform="translate(753.466797 0)"/>
     <use xlink:href="#DejaVuSans-34" transform="translate(785.253906 0)"/>
     <use xlink:href="#DejaVuSans-2e" transform="translate(848.876953 0)"/>
     <use xlink:href="#DejaVuSans-31" transform="translate(880.664062 0)"/>
     <use xlink:href="#DejaVuSans-35" transform="translate(944.287109 0)"/>
     <use xlink:href="#DejaVuSans-65" transform="translate(1007.910156 0)"/>
     <use xlink:href="#DejaVuSans-2d" transform="translate(1069.433594 0)"/>
     <use xlink:href="#DejaVuSans-30" transform="translate(1105.517578 0)"/>
     <use xlink:href="#DejaVuSans-35" transform="translate(1169.140625 0)"/>
     <use xlink:href="#DejaVuSans-2c" transform="translate(1232.763672 0)"/>
     <use xlink:href="#DejaVuSans-20" transform="translate(1264.550781 0)"/>
     <use xlink:href="#DejaVuSans-4e" transform="translate(1296.337891 0)"/>
     <use xlink:href="#DejaVuSans-20" transform="translate(1371.142578 0)"/>
     <use xlink:href="#DejaVuSans-3d" transform="translate(1402.929688 0)"/>
     <use xlink:href="#DejaVuSans-20" transform="translate(1486.71875 0)"/>
     <use xlink:href="#DejaVuSans-32" transform="translate(1518.505859 0)"/>
     <use xlink:href="#DejaVuSans-38" transform="translate(1582.128906 0)"/>
    </g>
   </g>
   <g id="legend_1">
    <g id="patch_8">
     <path d="M 472.871375 59.888125 
L 695.202313 59.888125 
Q 698.002313 59.888125 698.002313 57.088125 
L 698.002313 17 
Q 698.002313 14.2 695.202313 14.2 
L 472.871375 14.2 
Q 470.071375 14.2 470.071375 17 
L 470.071375 57.088125 
Q 470.071375 59.888125 472.871375 59.888125 
z
" style="fill: #ffffff; opacity: 0.8; stroke: #cccccc; stroke-linejoin: miter"/>
    </g>
    <g id="PathCollection_2">
     <g>
      <use xlink:href="#m29f123ae6a" x="489.671375" y="26.762813" style="fill: #ff8c00; stroke: #000000; stroke-width: 1.5"/>
     </g>
    </g>
    <g id="text_19">
     <!-- Mean M_S at each depth -->
     <g transform="translate(514.871375 30.437813) scale(0.14 -0.14)">
      <defs>
       <path id="DejaVuSans-4d" d="M 628 4666 
L 1569 4666 
L 2759 1491 
L 3956 4666 
L 4897 4666 
L 4897 0 
L 4281 0 
L 4281 4097 
L 3078 897 
L 2444 897 
L 1241 4097 
L 1241 0 
L 628 0 
L 628 4666 
z
" transform="scale(0.015625)"/>
       <path id="DejaVuSans-61" d="M 2194 1759 
Q 1497 1759 1228 1600 
Q 959 1441 959 1056 
Q 959 750 1161 570 
Q 1363 391 1709 391 
Q 2188 391 2477 730 
Q 2766 1069 2766 1631 
L 2766 1759 
L 2194 1759 
z
M 3341 1997 
L 3341 0 
L 2766 0 
L 2766 531 
Q 2569 213 2275 61 
Q 1981 -91 1556 -91 
Q 1019 -91 701 211 
Q 384 513 384 1019 
Q 384 1609 779 1909 
Q 1175 2209 1959 2209 
L 2766 2209 
L 2766 2266 
Q 2766 2663 2505 2880 
Q 2244 3097 1772 3097 
Q 1472 3097 1187 3025 
Q 903 2953 641 2809 
L 641 3341 
Q 956 3463 1253 3523 
Q 1550 3584 1831 3584 
Q 2591 3584 2966 3190 
Q 3341 2797 3341 1997 
z
" transform="scale(0.015625)"/>
       <path id="DejaVuSans-6e" d="M 3513 2113 
L 3513 0 
L 2938 0 
L 2938 2094 
Q 2938 2591 2744 2837 
Q 2550 3084 2163 3084 
Q 1697 3084 1428 2787 
Q 1159 2491 1159 1978 
L 1159 0 
L 581 0 
L 581 3500 
L 1159 3500 
L 1159 2956 
Q 1366 3272 1645 3428 
Q 1925 3584 2291 3584 
Q 2894 3584 3203 3211 
Q 3513 2838 3513 2113 
z
" transform="scale(0.015625)"/>
       <path id="DejaVuSans-5f" d="M 3263 -1063 
L 3263 -1509 
L -63 -1509 
L -63 -1063 
L 3263 -1063 
z
" transform="scale(0.015625)"/>
       <path id="DejaVuSans-53" d="M 3425 4513 
L 3425 3897 
Q 3066 4069 2747 4153 
Q 2428 4238 2131 4238 
Q 1616 4238 1336 4038 
Q 1056 3838 1056 3469 
Q 1056 3159 1242 3001 
Q 1428 2844 1947 2747 
L 2328 2669 
Q 3034 2534 3370 2195 
Q 3706 1856 3706 1288 
Q 3706 609 3251 259 
Q 2797 -91 1919 -91 
Q 1588 -91 1214 -16 
Q 841 59 441 206 
L 441 856 
Q 825 641 1194 531 
Q 1563 422 1919 422 
Q 2459 422 2753 634 
Q 3047 847 3047 1241 
Q 3047 1584 2836 1778 
Q 2625 1972 2144 2069 
L 1759 2144 
Q 1053 2284 737 2584 
Q 422 2884 422 3419 
Q 422 4038 858 4394 
Q 1294 4750 2059 4750 
Q 2388 4750 2728 4690 
Q 3069 4631 3425 4513 
z
" transform="scale(0.015625)"/>
       <path id="DejaVuSans-74" d="M 1172 4494 
L 1172 3500 
L 2356 3500 
L 2356 3053 
L 1172 3053 
L 1172 1153 
Q 1172 725 1289 603 
Q 1406 481 1766 481 
L 2356 481 
L 2356 0 
L 1766 0 
Q 1100 0 847 248 
Q 594 497 594 1153 
L 594 3053 
L 172 3053 
L 172 3500 
L 594 3500 
L 594 4494 
L 1172 4494 
z
" transform="scale(0.015625)"/>
       <path id="DejaVuSans-63" d="M 3122 3366 
L 3122 2828 
Q 2878 2963 2633 3030 
Q 2388 3097 2138 3097 
Q 1578 3097 1268 2742 
Q 959 2388 959 1747 
Q 959 1106 1268 751 
Q 1578 397 2138 397 
Q 2388 397 2633 464 
Q 2878 531 3122 666 
L 3122 134 
Q 2881 22 2623 -34 
Q 2366 -91 2075 -91 
Q 1284 -91 818 406 
Q 353 903 353 1747 
Q 353 2603 823 3093 
Q 1294 3584 2113 3584 
Q 2378 3584 2631 3529 
Q 2884 3475 3122 3366 
z
" transform="scale(0.015625)"/>
       <path id="DejaVuSans-68" d="M 3513 2113 
L 3513 0 
L 2938 0 
L 2938 2094 
Q 2938 2591 2744 2837 
Q 2550 3084 2163 3084 
Q 1697 3084 1428 2787 
Q 1159 2491 1159 1978 
L 1159 0 
L 581 0 
L 581 4863 
L 1159 4863 
L 1159 2956 
Q 1366 3272 1645 3428 
Q 1925 3584 2291 3584 
Q 2894 3584 3203 3211 
Q 3513 2838 3513 2113 
z
" transform="scale(0.015625)"/>
       <path id="DejaVuSans-64" d="M 2906 2969 
L 2906 4863 
L 3481 4863 
L 3481 0 
L 2906 0 
L 2906 525 
Q 2725 213 2448 61 
Q 2172 -91 1784 -91 
Q 1150 -91 751 415 
Q 353 922 353 1747 
Q 353 2572 751 3078 
Q 1150 3584 1784 3584 
Q 2172 3584 2448 3432 
Q 2725 3281 2906 2969 
z
M 947 1747 
Q 947 1113 1208 752 
Q 1469 391 1925 391 
Q 2381 391 2643 752 
Q 2906 1113 2906 1747 
Q 2906 2381 2643 2742 
Q 2381 3103 1925 3103 
Q 1469 3103 1208 2742 
Q 947 2381 947 1747 
z
" transform="scale(0.015625)"/>
      </defs>
      <use xlink:href="#DejaVuSans-4d"/>
      <use xlink:href="#DejaVuSans-65" transform="translate(86.279297 0)"/>
      <use xlink:href="#DejaVuSans-61" transform="translate(147.802734 0)"/>
      <use xlink:href="#DejaVuSans-6e" transform="translate(209.082031 0)"/>
      <use xlink:href="#DejaVuSans-20" transform="translate(272.460938 0)"/>
      <use xlink:href="#DejaVuSans-4d" transform="translate(304.248047 0)"/>
      <use xlink:href="#DejaVuSans-5f" transform="translate(390.527344 0)"/>
      <use xlink:href="#DejaVuSans-53" transform="translate(440.527344 0)"/>
      <use xlink:href="#DejaVuSans-20" transform="translate(504.003906 0)"/>
      <use xlink:href="#DejaVuSans-61" transform="translate(535.791016 0)"/>
      <use xlink:href="#DejaVuSans-74" transform="translate(597.070312 0)"/>
      <use xlink:href="#DejaVuSans-20" transform="translate(636.279297 0)"/>
      <use xlink:href="#DejaVuSans-65" transform="translate(668.066406 0)"/>
      <use xlink:href="#DejaVuSans-61" transform="translate(729.589844 0)"/>
      <use xlink:href="#DejaVuSans-63" transform="translate(790.869141 0)"/>
      <use xlink:href="#DejaVuSans-68" transform="translate(845.849609 0)"/>
      <use xlink:href="#DejaVuSans-20" transform="translate(909.228516 0)"/>
      <use xlink:href="#DejaVuSans-64" transform="translate(941.015625 0)"/>
      <use xlink:href="#DejaVuSans-65" transform="translate(1004.492188 0)"/>
      <use xlink:href="#DejaVuSans-70" transform="translate(1066.015625 0)"/>
      <use xlink:href="#DejaVuSans-74" transform="translate(1129.492188 0)"/>
      <use xlink:href="#DejaVuSans-68" transform="translate(1168.701172 0)"/>
     </g>
    </g>
    <g id="line2d_18">
     <path d="M 475.671375 46.476563 
L 489.671375 46.476563 
L 503.671375 46.476563 
" style="fill: none; stroke-dasharray: 9.25,4; stroke-dashoffset: 0; stroke: #000000; stroke-opacity: 0.4; stroke-width: 2.5"/>
    </g>
    <g id="text_20">
     <!-- Fit: y = -0.0688x + 25.54 -->
     <g transform="translate(514.871375 51.376563) scale(0.14 -0.14)">
      <defs>
       <path id="DejaVuSans-46" d="M 628 4666 
L 3309 4666 
L 3309 4134 
L 1259 4134 
L 1259 2759 
L 3109 2759 
L 3109 2228 
L 1259 2228 
L 1259 0 
L 628 0 
L 628 4666 
z
" transform="scale(0.015625)"/>
       <path id="DejaVuSans-69" d="M 603 3500 
L 1178 3500 
L 1178 0 
L 603 0 
L 603 3500 
z
M 603 4863 
L 1178 4863 
L 1178 4134 
L 603 4134 
L 603 4863 
z
" transform="scale(0.015625)"/>
       <path id="DejaVuSans-3a" d="M 750 794 
L 1409 794 
L 1409 0 
L 750 0 
L 750 794 
z
M 750 3309 
L 1409 3309 
L 1409 2516 
L 750 2516 
L 750 3309 
z
" transform="scale(0.015625)"/>
      </defs>
      <use xlink:href="#DejaVuSans-46"/>
      <use xlink:href="#DejaVuSans-69" transform="translate(50.269531 0)"/>
      <use xlink:href="#DejaVuSans-74" transform="translate(78.052734 0)"/>
      <use xlink:href="#DejaVuSans-3a" transform="translate(117.261719 0)"/>
      <use xlink:href="#DejaVuSans-20" transform="translate(150.953125 0)"/>
      <use xlink:href="#DejaVuSans-79" transform="translate(182.740234 0)"/>
      <use xlink:href="#DejaVuSans-20" transform="translate(241.919922 0)"/>
      <use xlink:href="#DejaVuSans-3d" transform="translate(273.707031 0)"/>
      <use xlink:href="#DejaVuSans-20" transform="translate(357.496094 0)"/>
      <use xlink:href="#DejaVuSans-2d" transform="translate(389.283203 0)"/>
      <use xlink:href="#DejaVuSans-30" transform="translate(425.367188 0)"/>
      <use xlink:href="#DejaVuSans-2e" transform="translate(488.990234 0)"/>
      <use xlink:href="#DejaVuSans-30" transform="translate(520.777344 0)"/>
      <use xlink:href="#DejaVuSans-36" transform="translate(584.400391 0)"/>
      <use xlink:href="#DejaVuSans-38" transform="translate(648.023438 0)"/>
      <use xlink:href="#DejaVuSans-38" transform="translate(711.646484 0)"/>
      <use xlink:href="#DejaVuSans-78" transform="translate(775.269531 0)"/>
      <use xlink:href="#DejaVuSans-20" transform="translate(834.449219 0)"/>
      <use xlink:href="#DejaVuSans-2b" transform="translate(866.236328 0)"/>
      <use xlink:href="#DejaVuSans-20" transform="translate(950.025391 0)"/>
      <use xlink:href="#DejaVuSans-32" transform="translate(981.8125 0)"/>
      <use xlink:href="#DejaVuSans-35" transform="translate(1045.435547 0)"/>
      <use xlink:href="#DejaVuSans-2e" transform="translate(1109.058594 0)"/>
      <use xlink:href="#DejaVuSans-35" transform="translate(1140.845703 0)"/>
      <use xlink:href="#DejaVuSans-34" transform="translate(1204.46875 0)"/>
     </g>
    </g>
   </g>
  </g>
 </g>
 <defs>
  <clipPath id="p8b5fc83de8">
   <rect x="86.405313" y="7.2" width="618.597" height="493.02"/>
  </clipPath>
 </defs>
</svg>
